<?xml version="1.0" encoding="UTF-8"?>
<svg xmlns="http://www.w3.org/2000/svg" xmlns:xlink="http://www.w3.org/1999/xlink"   viewBox="0 0 192 192" version="1.1">
<g>
<path style=" stroke:none;fill-rule:nonzero;fill-opacity:1;" fill="#ff0000" d="M 96 7.5 C 120.449219 7.5 142.574219 17.398438 158.550781 33.449219 C 174.601562 49.425781 184.5 71.550781 184.5 96 C 184.5 120.449219 174.601562 142.574219 158.550781 158.550781 C 142.574219 174.601562 120.449219 184.5 96 184.5 C 71.550781 184.5 49.425781 174.601562 33.449219 158.550781 C 17.398438 142.574219 7.5 120.449219 7.5 96 C 7.5 71.550781 17.398438 49.425781 33.449219 33.449219 C 49.425781 17.398438 71.550781 7.5 96 7.5 Z M 152.25 39.75 C 137.851562 25.351562 117.976562 16.425781 96 16.425781 C 74.023438 16.425781 54.148438 25.351562 39.75 39.75 C 25.351562 54.148438 16.425781 74.023438 16.425781 96 C 16.425781 117.976562 25.351562 137.851562 39.75 152.25 C 54.148438 166.648438 74.023438 175.574219 96 175.574219 C 117.976562 175.574219 137.851562 166.648438 152.25 152.25 C 166.648438 137.851562 175.574219 117.976562 175.574219 96 C 175.574219 74.023438 166.648438 54.148438 152.25 39.75 Z M 152.25 39.75 "/>
<path style=" stroke:none;fill-rule:nonzero;fill-opacity:1;" fill="#ff0000" d="M 96 130.726562 C 102.074219 130.726562 107.023438 135.675781 107.023438 141.75 C 107.023438 147.824219 102.074219 152.773438 96 152.773438 C 89.925781 152.773438 84.976562 147.824219 84.976562 141.75 C 84.976562 135.675781 89.925781 130.726562 96 130.726562 Z M 100.199219 39.226562 L 91.875 39.226562 C 90.449219 39.226562 89.175781 39.75 88.125 40.800781 C 87.074219 41.851562 86.625 43.125 86.699219 44.550781 L 89.398438 116.027344 C 89.472656 118.800781 91.796875 120.976562 94.574219 120.976562 L 97.5 120.976562 C 100.273438 120.976562 102.523438 118.800781 102.675781 116.027344 L 105.375 44.550781 C 105.449219 43.050781 104.925781 41.851562 103.949219 40.800781 C 102.898438 39.75 101.625 39.226562 100.199219 39.226562 Z M 100.199219 39.226562 "/>
</g>
</svg>
