<?xml version="1.0" encoding="utf-8"?>
<!-- Svg Vector Icons : http://www.onlinewebfonts.com/icon -->
<!DOCTYPE svg PUBLIC "-//W3C//DTD SVG 1.1//EN" "http://www.w3.org/Graphics/SVG/1.1/DTD/svg11.dtd">
<svg version="1.1" xmlns="http://www.w3.org/2000/svg" xmlns:xlink="http://www.w3.org/1999/xlink" x="0px" y="0px" viewBox="0 0 256 256" enable-background="new 0 0 256 256" xml:space="preserve">
<metadata> Svg Vector Icons : http://www.onlinewebfonts.com/icon </metadata>
<g><g><g><path fill="#000000" d="M86.7,10.8c-9.8,1.7-18.4,6.3-25.7,13.6c-5.3,5.3-9.1,11.1-11.4,17.5c-2.6,7.2-3.1,11.4-3.1,27.1v14.2l-6.2,0.2c-5.3,0.2-6.6,0.4-8.8,1.4c-3.2,1.6-6.3,4.6-7.9,7.9l-1.3,2.5v69.5v69.5l1.3,2.5c1.6,3.3,4.6,6.3,7.9,7.9l2.5,1.3H128h93.9l2.5-1.3c3.3-1.6,6.3-4.6,7.9-7.9l1.3-2.5v-69.5V95.3l-1.3-2.5c-1.6-3.3-4.7-6.3-7.9-7.9c-2.1-1-3.5-1.3-8.8-1.4l-6.2-0.2l-0.2-16.1c-0.2-14.4-0.4-16.5-1.3-20c-5.2-19.2-20.2-33-39.1-36.3C162.7,9.7,92.6,9.7,86.7,10.8z M167.5,27.1c9.3,1.9,17.9,8.7,22.1,17.1c3.2,6.6,3.6,9.3,3.6,25.3v13.9H128H62.8V69.4c0-16,0.4-18.7,3.6-25.3c4.1-8.3,12.8-15.1,21.8-17C93.3,26,162.4,26,167.5,27.1z M215,116.6c0.8,0.4,1.6,1.3,2,2.1c0.5,1,0.6,14.3,0.6,54.3c0,57.5,0.1,55-2.8,56.4c-1.8,0.9-172.2,0.9-174.1,0.1c-0.7-0.4-1.5-1.2-1.8-1.9c-0.4-0.9-0.6-17.4-0.5-55.2l0.2-53.9l1.4-1.2l1.4-1.2h86C201,115.9,213.8,116,215,116.6z"/><path fill="#000000" d="M122.9,149.3c-11.8,4.3-14.9,18.6-6,27.2c1.1,1.1,2.2,2,2.5,2s0.5,4.2,0.5,9.4v9.4h8.1h8.1V188c0-5.2,0.2-9.4,0.5-9.4c0.9,0,4.7-4.2,6-6.7c1.2-2.3,1.4-3.3,1.4-7c-0.1-5.1-1.2-8.1-4.6-11.5C135.3,149.2,128.2,147.4,122.9,149.3z"/></g></g></g>
</svg>