<?xml version="1.0" encoding="utf-8"?>
<!-- Svg Vector Icons : http://www.onlinewebfonts.com/icon -->
<!DOCTYPE svg PUBLIC "-//W3C//DTD SVG 1.1//EN" "http://www.w3.org/Graphics/SVG/1.1/DTD/svg11.dtd">
<svg version="1.1" xmlns="http://www.w3.org/2000/svg" xmlns:xlink="http://www.w3.org/1999/xlink" x="0px" y="0px" viewBox="0 0 256 256" enable-background="new 0 0 256 256" xml:space="preserve">
<metadata> Svg Vector Icons : http://www.onlinewebfonts.com/icon </metadata>
<g><g><g><path fill="#000000" d="M19.1,45.2c-3.2,0.7-6,2.7-7.6,5.5L10,53.3v74.5c0,40.9,0.2,75.2,0.5,76c0.7,2.5,3.7,5.6,6.5,6.7c2.2,0.8,13.1,0.9,112.2,0.8l109.6-0.2l2.1-1.4c1.1-0.8,2.7-2.4,3.5-3.5l1.4-2.1l0.2-75c0.1-72.4,0.1-75-1-77.5c-1.4-3.3-4.4-5.5-8.3-6.3C233.1,44.6,22.6,44.6,19.1,45.2z M225.1,55.3c-0.4,0.2-22.2,15.4-48.7,33.7C149,107.8,128,122,127.5,121.9c-0.8-0.3-82.5-55.3-94.7-63.7l-5-3.4h98.9C181.2,54.7,225.4,55,225.1,55.3z M236.5,162.9l-0.2,35l-36-31.9c-19.8-17.6-36.7-32.3-37.5-32.9c-2-1.4-3.7-1.2-5.6,0.2c-1.4,1.1-1.6,1.7-1.4,3.7c0.2,2.4,0.5,2.7,35.3,33.5l35.1,31l-49.4,0.2c-27.1,0.1-71.7,0.1-99.1,0l-49.8-0.2l35.1-31C97.8,139.7,98,139.5,98.2,137c0.2-2-0.1-2.6-1.4-3.7c-1.9-1.5-3.6-1.6-5.6-0.2c-0.8,0.5-17.1,14.8-36.2,31.7S20,195.7,19.7,195.8c-0.3,0.1-0.5-25.3-0.5-67.5c0-54,0.2-67.7,0.8-67.3c0.4,0.2,24.3,16.4,53.3,35.9c35.6,24,53.2,35.6,54.5,35.7c1.6,0.2,7.9-4,55.3-36.7L236.3,59l0.2,34.4C236.6,112.4,236.6,143.7,236.5,162.9z"/></g></g></g>
</svg>