<?xml version="1.0" encoding="utf-8"?>
<!-- Svg Vector Icons : http://www.onlinewebfonts.com/icon -->
<!DOCTYPE svg PUBLIC "-//W3C//DTD SVG 1.1//EN" "http://www.w3.org/Graphics/SVG/1.1/DTD/svg11.dtd">
<svg version="1.1" xmlns="http://www.w3.org/2000/svg" xmlns:xlink="http://www.w3.org/1999/xlink" x="0px" y="0px" viewBox="0 0 256 256" enable-background="new 0 0 256 256" xml:space="preserve">
<metadata> Svg Vector Icons : http://www.onlinewebfonts.com/icon </metadata>
<g><g><path fill="#000000" d="M150.8,246h-45.6c-43.3,0-77.5,0-77.5-23.1v-4.6c0-43.4,34.8-78.7,77.5-78.7h45.6c42.7,0,77.5,35.3,77.5,78.7v4.6C228.3,246,192.4,246,150.8,246L150.8,246z M105.2,153.5c-35.3,0-64,29-64,64.8v4.6c0,9.2,37,9.2,64,9.2h45.6c22.4,0,64,0,64-9.2v-4.6c0-35.7-28.7-64.8-64-64.8H105.2L105.2,153.5z M125.7,134.9c-33.9,0-61.5-28-61.5-62.5C64.2,38,91.8,10,125.7,10c33.9,0,61.5,28,61.5,62.5C187.2,106.9,159.6,134.9,125.7,134.9L125.7,134.9z M77.7,72.5c0,26.8,21.6,48.6,48,48.6c26.5,0,48-21.8,48-48.6c0-26.8-21.6-48.6-48-48.6C99.2,23.9,77.7,45.7,77.7,72.5L77.7,72.5z"/></g></g>
</svg>